<svg width="196" height="42" viewBox="0 0 196 42" fill="none" xmlns="http://www.w3.org/2000/svg">
<g clip-path="url(#clip0_19_6672)">
<path d="M35.1069 29.1351V29.0891C35.1069 25.413 32.4825 23.4141 28.3617 23.4141H20.4656V41.9556H24.5633V35.0629H26.7733L31.4005 41.9556H36.1889L31.1012 34.5804C33.3343 33.7762 35.1299 32.053 35.1299 29.1351H35.1069ZM30.9631 29.204C30.9631 30.6745 29.789 31.4327 28.0395 31.4327H24.5403V27.0902H27.9474C29.8121 27.0902 30.9401 27.6646 30.9401 29.181V29.227L30.9631 29.204Z" fill="white"/>
<path d="M9.32347 34.8756H13.2831V37.3111C12.2932 38.0463 11.004 38.3679 9.5767 38.3679C6.35377 38.3679 4.09772 36.0014 4.09772 32.7159V32.6699C4.09772 29.6141 6.39981 27.0408 9.30045 27.0408C11.3493 27.0408 12.5924 27.7301 13.9737 28.8559L16.4139 25.869C14.5492 24.3067 12.6155 23.4336 9.39253 23.4336C3.93658 23.4336 0 27.5922 0 32.7159V32.7848C0 38.0463 3.84449 41.9522 9.43857 41.9522C12.6845 41.9522 15.2629 40.6655 17.0815 39.1491V31.4752H9.32347V34.8756Z" fill="white"/>
<path d="M70.7202 33.7498C70.7202 36.6907 69.2008 38.1841 66.6916 38.1841C64.1823 38.1841 62.6629 36.6218 62.6629 33.6119V23.4336H58.5652V33.7268C58.5652 39.1721 61.627 41.9752 66.5995 41.9752C71.572 41.9752 74.7489 39.2181 74.7489 33.6119V23.4336H70.6972V33.7728L70.7202 33.7498Z" fill="white"/>
<path d="M85.7758 23.4141H77.8796V41.9556H81.9774V35.6832H85.3845C88.8836 35.6832 92.5209 33.5924 92.5209 29.4338V29.3878C92.5209 25.7117 89.8965 23.4141 85.7758 23.4141ZM88.4002 29.5027C88.4002 30.9731 87.4563 32.03 85.4765 32.03H81.9774V27.0672H85.3845C87.4794 27.0672 88.3772 27.9403 88.3772 29.4567V29.5027H88.4002Z" fill="white"/>
<path d="M46.4793 23.4136C40.9312 23.4136 36.9026 27.5952 36.9026 32.6729V32.7418C36.9026 37.8425 40.8622 41.9782 46.4102 41.9782C51.9583 41.9782 55.9869 37.7965 55.9869 32.6729V32.6269C55.9869 27.5263 52.0273 23.3906 46.4793 23.3906V23.4136ZM51.8662 32.7648C51.8662 35.8436 49.6331 38.325 46.4793 38.325C43.3254 38.325 41.0003 35.7517 41.0003 32.6729V32.6269C41.0003 29.5482 43.2333 27.0208 46.3872 27.0208C49.5411 27.0208 51.8662 29.5941 51.8662 32.6729V32.7418V32.7648Z" fill="white"/>
<path d="M44.9602 0.117188L37.041 18.6588H41.2078L42.9113 14.5001H50.7615L52.465 18.6588H56.7009L48.8047 0.117188H44.9602ZM44.3617 10.8929L46.8249 4.8732L49.2881 10.8929H44.3617Z" fill="white"/>
<path d="M158.108 0L150.142 18.6565H154.309L156.013 14.4978H163.863L165.566 18.6565H169.802L161.883 0H158.085H158.108ZM157.463 10.8906L159.926 4.8709L162.435 10.8906H157.463Z" fill="white"/>
<path d="M132.324 5.83819V5.79224C132.324 2.11609 129.7 0.117188 125.579 0.117188H117.683V18.6588H121.78V11.766H123.99L128.618 18.6588H133.406L128.318 11.2835C130.551 10.4793 132.347 8.75614 132.347 5.83819H132.324ZM128.18 5.90712C128.18 7.37758 127.006 8.13579 125.256 8.13579H121.757V3.79334H125.164C127.029 3.79334 128.157 4.36773 128.157 5.88415V5.9301L128.18 5.90712Z" fill="white"/>
<path d="M23.113 11.1916H31.1703V18.6588H35.2681V0.117188H31.1703V7.44651H23.113V0.117188H19.0383V18.6588H23.113V11.1916Z" fill="white"/>
<path d="M80.1815 18.6588V0.117188H75.4852L69.4998 12.5242L63.2151 0.117188H58.5879V18.6588H62.5935V7.37758L68.4408 18.6588H70.2595L76.1298 7.30865V18.6588H80.1815Z" fill="white"/>
<path d="M191.971 0.117188V11.5362L183.293 0.117188H179.494V18.6588H183.569V6.89509L192.547 18.6588H196V0.117188H191.971Z" fill="white"/>
<path d="M9.16232 18.6098C12.6385 18.6098 14.6873 17.4151 16.506 15.4391L14.0197 12.9348C12.5924 14.2214 11.3493 15.0026 9.30045 15.0026C6.23867 15.0026 4.12074 12.4523 4.12074 9.39648V9.35053C4.12074 6.29473 6.28471 3.76738 9.30045 3.76738C11.0961 3.76738 12.4773 4.52558 13.8586 5.76628L16.3909 2.89429C14.7334 1.263 12.7075 0.160156 9.34649 0.160156C3.84449 0.160156 0 4.3188 0 9.3735V9.41945C0 14.5661 3.91355 18.6098 9.16232 18.6098Z" fill="white"/>
<path d="M105.021 11.1227H113.792V7.49246H105.021V3.74738H115.012V0.117188H100.97V18.6588H115.105V15.0286H105.021V11.1227Z" fill="white"/>
<path d="M139.529 0.117188H135.432V18.6588H148.899V14.9367H139.529V0.117188Z" fill="white"/>
<path d="M175.949 0.117188H171.852V18.6588H175.949V0.117188Z" fill="white"/>
<path d="M95.4672 9.19268C97.2168 8.31959 98.2297 6.78021 98.2297 4.96511V4.91916C98.2297 2.04717 95.9967 0.117188 92.1292 0.117188H83.5654V18.6588H91.5767C95.7895 18.6588 98.552 16.9585 98.552 13.5811V13.5122C98.552 11.3524 97.424 9.99684 95.4903 9.19268H95.4672ZM87.548 3.70143H91.5307C93.2342 3.70143 94.1781 4.39071 94.1781 5.58546V5.63141C94.1781 7.14782 93.05 7.7452 91.2544 7.7452H87.548V3.70143ZM94.4543 13.0526C94.4543 14.4542 93.3954 15.0515 91.5767 15.0515H87.548V11.0078H91.4616C93.5565 11.0078 94.4543 11.766 94.4543 13.0067V13.0526Z" fill="white"/>
</g>
<defs>
<clipPath id="clip0_19_6672">
<rect width="196" height="42" fill="white"/>
</clipPath>
</defs>
</svg>
